# xmcd CD database file
# Copyright (C) 1993-1998 Ti Kan
# 
# Track frame offsets:
#     150
#     15675
#     40387
#     58237
#     76012
#     89812
#     105187
#     124575
#     146062
#     160237
# 
# Disc length: 2390 seconds
# 
# Revision: 1
# Processed by: cddbd v1.4b41PL1 Copyright (c) Steve Scherf et al.
# Submitted via: DiscPlay 4.0.4
# 
DISCID=7e09540a
DTITLE=Clarence Gatemouth Brown - One More Mile
DYEAR=1900
DGENRE=
TTITLE0=Information Blues
TTITLE1=Song For Renee
TTITLE2=Stranded
TTITLE3=Sunrise Cajun Style
TTITLE4=Big Yard
TTITLE5=Ain't That Dandy
TTITLE6=One More Mile
TTITLE7=I Wonder
TTITLE8=Flippin' Out
TTITLE9=Near Baku
EXTD=
EXTT0=
EXTT1=
EXTT2=
EXTT3=
EXTT4=
EXTT5=
EXTT6=
EXTT7=
EXTT8=
EXTT9=
PLAYORDER=
